<?xml version="1.0" encoding="UTF-8" standalone="no"?>
<!DOCTYPE svg PUBLIC "-//W3C//DTD SVG 1.1//EN" "http://www.w3.org/Graphics/SVG/1.1/DTD/svg11.dtd">
<svg width="100%" height="100%" viewBox="0 0 2640 600" version="1.1" xmlns="http://www.w3.org/2000/svg" xmlns:xlink="http://www.w3.org/1999/xlink" xml:space="preserve" xmlns:serif="http://www.serif.com/" style="fill-rule:evenodd;clip-rule:evenodd;stroke-linejoin:round;stroke-miterlimit:2;">
    <g transform="matrix(1,0,0,1,23.219,-173.327)">
        <g transform="matrix(1,0,0,1,307,645)">
            <g>
                <text x="0px" y="0px" style="font-family:'Arial-BoldMT', 'Arial', sans-serif;font-weight:700;font-size:504px;fill:rgb(32,56,100);">C</text>
            </g>
        </g>
        <g transform="matrix(1,0,0,1,1035.75,645)">
            <g>
                <text x="0px" y="0px" style="font-family:'Arial-BoldMT', 'Arial', sans-serif;font-weight:700;font-size:504px;fill:rgb(32,56,100);">Vdist</text>
            </g>
        </g>
        <g transform="matrix(1.0019,0,0,1,588,210)">
            <g>
                <g>
                    <g>
                        <path d="M273.935,91.113C280.963,81.755 288.387,75.785 288.387,65.743C288.387,51.728 279.448,43.827 263.01,43.827C246.573,43.827 237.633,51.728 237.633,65.743C237.633,75.753 245.01,81.719 252.019,91.024L252.022,110.014C238.409,110.973 224.988,113.757 212.117,118.291C213.948,112.029 216.167,107.149 213.954,101.768C210.556,93.505 203.369,91.014 193.677,95C183.985,98.986 180.63,105.813 184.029,114.077C186.231,119.432 191.209,121.347 196.885,124.485L196.918,124.567C184.559,130.509 173.05,138.077 162.696,147.069L149.308,133.687C147.66,122.1 148.69,112.628 141.588,105.526C131.679,95.616 119.77,96.35 108.147,107.974C96.524,119.596 95.79,131.505 105.7,141.415C112.777,148.493 122.209,147.495 133.743,149.119L147.19,162.56C138.085,173.025 130.439,184.674 124.457,197.19L124.259,197.108C121.122,191.434 119.206,186.457 113.851,184.254C105.587,180.855 98.761,184.21 94.775,193.902C90.789,203.594 93.28,210.781 101.544,214.18C106.925,216.393 111.807,214.171 118.072,212.34L118.212,212.398C113.749,225.148 111.002,238.436 110.044,251.911L91.288,251.914C81.93,244.885 75.959,237.459 65.917,237.459C51.902,237.459 44.001,246.399 44.001,262.837C44.001,279.274 51.902,288.214 65.917,288.214C75.926,288.214 81.891,280.838 91.196,273.831L110.024,273.827C110.967,287.387 113.721,300.76 118.212,313.589L118.072,313.646C111.807,311.815 106.925,309.593 101.543,311.807C93.28,315.205 90.789,322.392 94.775,332.084C98.761,341.776 105.587,345.131 113.851,341.732C119.206,339.53 121.121,334.553 124.259,328.878L124.457,328.797C130.417,341.265 138.03,352.874 147.089,363.31L133.866,376.539C122.276,378.187 112.802,377.157 105.7,384.259C95.79,394.17 96.524,406.077 108.147,417.701C119.77,429.324 131.679,430.059 141.588,420.147C148.666,413.071 147.669,403.637 149.292,392.103L162.577,378.814C172.961,387.852 184.511,395.454 196.918,401.419L196.883,401.503C191.209,404.64 186.231,406.555 184.029,411.91C180.629,420.174 183.984,427 193.677,430.987C203.369,434.973 210.556,432.482 213.954,424.218C216.167,418.838 213.948,413.958 212.116,407.695C225.007,412.236 238.45,415.022 252.084,415.977L252.087,434.56C245.058,443.918 237.633,449.888 237.633,459.931C237.633,473.947 246.572,481.848 263.01,481.848C279.447,481.848 288.387,473.947 288.387,459.931C288.387,449.922 281.011,443.957 274.004,434.652L274,415.973C287.421,415.025 300.657,412.305 313.363,407.882C311.543,414.053 309.391,418.893 311.582,424.218C314.98,432.482 322.166,434.973 331.859,430.987C341.551,427 344.906,420.174 341.507,411.91C339.321,406.595 334.401,404.668 328.778,401.571C341.328,395.577 353.007,387.91 363.496,378.778L376.713,391.991C378.36,403.576 377.332,413.047 384.432,420.147C394.343,430.059 406.251,429.324 417.874,417.701C429.497,406.078 430.232,394.17 420.321,384.259C413.243,377.181 403.809,378.179 392.274,376.555L378.981,363.267C387.944,352.939 395.49,341.462 401.419,329.141C404.472,334.705 406.413,339.565 411.685,341.732C419.949,345.132 426.775,341.777 430.762,332.084C434.748,322.392 432.256,315.205 423.993,311.807C418.721,309.639 413.923,311.726 407.839,313.533C412.325,300.702 415.074,287.327 416.012,273.766L434.735,273.762C444.093,280.79 450.063,288.214 460.104,288.214C474.12,288.214 482.021,279.274 482.021,262.837C482.021,246.399 474.12,237.459 460.104,237.459C450.095,237.459 444.129,244.837 434.823,251.845L415.984,251.849C415.023,238.415 412.284,225.167 407.839,212.454C413.923,214.261 418.721,216.348 423.993,214.18C432.256,210.781 434.747,203.595 430.762,193.903C426.776,184.21 419.949,180.855 411.685,184.255C406.413,186.423 404.472,191.282 401.42,196.847C395.448,184.439 387.839,172.89 378.795,162.507L392.16,149.135C403.748,147.487 413.22,148.517 420.321,141.415C430.232,131.505 429.497,119.596 417.874,107.974C406.251,96.351 394.343,95.616 384.432,105.526C377.354,112.605 378.353,122.04 376.727,133.576L363.285,147.025C352.85,137.974 341.244,130.369 328.779,124.415C334.401,121.319 339.321,119.391 341.507,114.076C344.906,105.812 341.551,98.986 331.859,94.999C322.167,91.013 314.98,93.505 311.582,101.768C309.392,107.094 311.543,111.933 313.363,118.104C300.637,113.674 287.381,110.951 273.939,110.009L273.935,91.113ZM172.29,273.074C166.723,278.641 157.696,278.641 152.129,273.074C146.562,267.506 146.562,258.48 152.13,252.912C157.696,247.345 166.723,247.345 172.29,252.912C177.858,258.479 177.858,267.505 172.291,273.073L172.29,273.074ZM217.653,338.598C209.302,346.949 195.762,346.95 187.411,338.598C179.06,330.247 179.06,316.707 187.411,308.357C195.762,300.005 209.302,300.005 217.653,308.356L217.653,308.357C226.004,316.707 226.004,330.247 217.653,338.598ZM217.653,217.631C209.302,225.982 195.762,225.982 187.41,217.631C179.06,209.28 179.06,195.74 187.41,187.389C195.762,179.037 209.302,179.037 217.653,187.389C226.004,195.74 226.004,209.279 217.653,217.631ZM273.096,373.881C267.529,379.448 258.502,379.448 252.935,373.881C247.368,368.313 247.368,359.286 252.935,353.719C258.503,348.152 267.529,348.152 273.096,353.719C278.664,359.287 278.664,368.313 273.096,373.881ZM353.742,252.912C359.309,247.345 368.335,247.345 373.903,252.912C379.471,258.48 379.471,267.507 373.903,273.074C368.336,278.641 359.309,278.641 353.742,273.074C348.174,267.507 348.174,258.48 353.742,252.912ZM308.38,187.389C316.731,179.038 330.27,179.038 338.621,187.389C346.972,195.74 346.971,209.28 338.621,217.631C330.269,225.982 316.73,225.982 308.38,217.631C300.028,209.281 300.027,195.742 308.377,187.391C308.378,187.39 308.378,187.389 308.379,187.389L308.38,187.389ZM308.38,308.357C316.73,300.005 330.27,300.006 338.621,308.357C346.971,316.708 346.971,330.247 338.621,338.598C330.27,346.948 316.73,346.948 308.38,338.598C300.028,330.248 300.028,316.709 308.378,308.358L308.379,308.357L308.38,308.357ZM278.137,278.114C269.785,286.466 256.246,286.465 247.894,278.114C239.544,269.763 239.544,256.223 247.895,247.872C256.246,239.521 269.785,239.521 278.137,247.872C286.488,256.223 286.489,269.762 278.138,278.114L278.137,278.114ZM273.096,172.267C267.529,177.835 258.503,177.835 252.935,172.267C247.368,166.7 247.368,157.673 252.935,152.107C258.503,146.539 267.529,146.539 273.096,152.107C278.664,157.673 278.664,166.7 273.097,172.267L273.096,172.267Z" style="fill:rgb(32,56,100);fill-rule:nonzero;"/>
                    </g>
                </g>
            </g>
        </g>
    </g>
</svg>
